<?xml version="1.0" encoding="UTF-8" standalone="no"?>
<!-- Created with Inkscape (http://www.inkscape.org/) -->

<svg
   width="116.0684mm"
   height="67.417366mm"
   viewBox="0 0 116.0684 67.417366"
   version="1.1"
   id="svg1"
   inkscape:export-filename="comparacion.svg"
   inkscape:export-xdpi="96"
   inkscape:export-ydpi="96"
   xmlns:inkscape="http://www.inkscape.org/namespaces/inkscape"
   xmlns:sodipodi="http://sodipodi.sourceforge.net/DTD/sodipodi-0.dtd"
   xmlns="http://www.w3.org/2000/svg"
   xmlns:svg="http://www.w3.org/2000/svg">
  <sodipodi:namedview
     id="namedview1"
     pagecolor="#505050"
     bordercolor="#eeeeee"
     borderopacity="1"
     inkscape:showpageshadow="0"
     inkscape:pageopacity="0"
     inkscape:pagecheckerboard="0"
     inkscape:deskcolor="#505050"
     inkscape:document-units="mm" />
  <defs
     id="defs1">
    <inkscape:path-effect
       effect="mirror_symmetry"
       start_point="147.1426,75.155764"
       end_point="147.1426,142.57313"
       center_point="147.1426,108.86445"
       id="path-effect4"
       is_visible="true"
       lpeversion="1.2"
       lpesatellites="#path4"
       mode="vertical"
       discard_orig_path="false"
       fuse_paths="false"
       oposite_fuse="false"
       split_items="true"
       split_open="false"
       link_styles="false" />
  </defs>
  <g
     inkscape:label="Capa 1"
     inkscape:groupmode="layer"
     id="layer1"
     transform="translate(-90.465801,-71.291318)">
    <path
       id="rect1"
       style="fill:#fdfeff;fill-opacity:1;stroke:none;stroke-width:0.756352;stroke-linecap:round;stroke-linejoin:round;stroke-opacity:1"
       d="m 181.69787,71.309875 a 34.152421,18.640825 78.562981 0 0 -2.39979,0.434082 34.152421,18.640825 78.562981 0 0 -0.14037,0.06201 h -61.45577 a 18.640825,34.152421 11.437001 0 0 -25.628283,27.72285 18.640825,34.152421 11.437001 0 0 10.126853,38.727343 18.640825,34.152421 11.437001 0 0 25.62829,-27.72285 18.640825,34.152421 11.437001 0 0 0.0135,-0.062 h 41.32895 a 34.152421,18.640825 78.562981 0 0 25.62823,27.72337 34.152421,18.640825 78.562981 0 0 10.12686,-38.727343 34.152421,18.640825 78.562981 0 0 -23.22846,-28.157454 z" />
    <path
       id="path4-1"
       style="fill:#5aa2ff;stroke-linecap:round;stroke-linejoin:round"
       d="m 184.60693,88.03244 a 3.3935101,3.3935101 0 0 1 -3.39351,3.39351 3.3935101,3.3935101 0 0 1 -3.39351,-3.39351 3.3935101,3.3935101 0 0 1 3.39351,-3.39351 3.3935101,3.3935101 0 0 1 3.39351,3.39351 z m 6.78702,6.787026 a 3.3935101,3.3935101 0 0 1 -3.39351,3.39351 3.3935101,3.3935101 0 0 1 -3.39351,-3.39351 3.3935101,3.3935101 0 0 1 3.39351,-3.39351 3.3935101,3.3935101 0 0 1 3.39351,3.39351 z m -6.78702,6.787024 A 3.3935101,3.3935101 0 0 1 181.21342,105 a 3.3935101,3.3935101 0 0 1 -3.39351,-3.39351 3.3935101,3.3935101 0 0 1 3.39351,-3.393509 3.3935101,3.3935101 0 0 1 3.39351,3.393509 z m -6.78701,-6.787024 a 3.3935101,3.3935101 0 0 1 -3.39351,3.39351 3.3935101,3.3935101 0 0 1 -3.39351,-3.39351 3.3935101,3.3935101 0 0 1 3.39351,-3.39351 3.3935101,3.3935101 0 0 1 3.39351,3.39351 z"
       inkscape:path-effect="#path-effect4"
       inkscape:original-d="m 184.60693,88.03244 a 3.3935101,3.3935101 0 0 1 -3.39351,3.39351 3.3935101,3.3935101 0 0 1 -3.39351,-3.39351 3.3935101,3.3935101 0 0 1 3.39351,-3.39351 3.3935101,3.3935101 0 0 1 3.39351,3.39351 z m 6.78702,6.787026 a 3.3935101,3.3935101 0 0 1 -3.39351,3.39351 3.3935101,3.3935101 0 0 1 -3.39351,-3.39351 3.3935101,3.3935101 0 0 1 3.39351,-3.39351 3.3935101,3.3935101 0 0 1 3.39351,3.39351 z m -6.78702,6.787024 A 3.3935101,3.3935101 0 0 1 181.21342,105 a 3.3935101,3.3935101 0 0 1 -3.39351,-3.39351 3.3935101,3.3935101 0 0 1 3.39351,-3.393509 3.3935101,3.3935101 0 0 1 3.39351,3.393509 z m -6.78701,-6.787024 a 3.3935101,3.3935101 0 0 1 -3.39351,3.39351 3.3935101,3.3935101 0 0 1 -3.39351,-3.39351 3.3935101,3.3935101 0 0 1 3.39351,-3.39351 3.3935101,3.3935101 0 0 1 3.39351,3.39351 z"
       transform="translate(1.3574039,-3.8644456)" />
    <path
       id="path4"
       d="m 184.60693,88.03244 a 3.3935101,3.3935101 0 0 1 -3.39351,3.39351 3.3935101,3.3935101 0 0 1 -3.39351,-3.39351 3.3935101,3.3935101 0 0 1 3.39351,-3.39351 3.3935101,3.3935101 0 0 1 3.39351,3.39351 z m 6.78702,6.787026 a 3.3935101,3.3935101 0 0 1 -3.39351,3.39351 3.3935101,3.3935101 0 0 1 -3.39351,-3.39351 3.3935101,3.3935101 0 0 1 3.39351,-3.39351 3.3935101,3.3935101 0 0 1 3.39351,3.39351 z m -6.78702,6.787024 A 3.3935101,3.3935101 0 0 1 181.21342,105 a 3.3935101,3.3935101 0 0 1 -3.39351,-3.39351 3.3935101,3.3935101 0 0 1 3.39351,-3.393509 3.3935101,3.3935101 0 0 1 3.39351,3.393509 z m -6.78701,-6.787024 a 3.3935101,3.3935101 0 0 1 -3.39351,3.39351 3.3935101,3.3935101 0 0 1 -3.39351,-3.39351 3.3935101,3.3935101 0 0 1 3.39351,-3.39351 3.3935101,3.3935101 0 0 1 3.39351,3.39351 z"
       style="fill:#5aa2ff;stroke-linecap:round;stroke-linejoin:round"
       transform="matrix(-1,0,0,1,295.6426,-3.8644456)" />
    <path
       style="fill:#5aa2ff;stroke-width:1.80868;stroke-linecap:round;stroke-linejoin:round"
       d="m 143.7919,103.03592 9.41619,1.99642 -9.41619,1.93174 z"
       id="rect4-8" />
  </g>
</svg>
